#!OML:ASF H:\ManfredETheater\Project 1\Capture day 1\Session 1\subject.ASF
:FULLY-SPECIFIED
:DEGREES
250
root 3.21187 13.4927 9.40434 38.0737 -35.4821 -17.0007
lowerback 41.1622 3.28862 7.10748
upperback 8.38268 7.0341 5.82922
thorax -10.2535 2.6863 -0.30268
lowerneck -25.6515 27.5087 3.41271
upperneck -0.357865 51.575 -3.04679
head 35.7045 -43.8828 140.312
rclavicle 2.22639e-014 -3.97569e-016
rhumerus -32.1249 -18.8795 -68.4805
rradius 54.347
rwrist -21.7569
rhand -32.7765 -1.34636
rfingers 7.12502
rthumb -5.99844 -31.2414
lclavicle 2.22639e-014 -3.97569e-016
lhumerus -24.7236 -15.8726 98.1213
lradius 89.9297
lwrist -13.9554
lhand -36.3242 -5.5744
lfingers 7.12502
lthumb -9.42259 24.195
rfemur -26.6893 1.22158 9.6562
rtibia 71.232
rfoot 14.7477 1.50514
rtoes -43.7406
lfemur -85.5691 21.6673 -32.7078
ltibia 102.705
lfoot -31.3041 -11.3388
ltoes 22.5553
251
root 3.12426 13.5867 9.6888 37.975 -33.7764 -16.4435
lowerback 40.5871 2.96454 7.48829
upperback 7.89239 6.8519 5.76986
thorax -10.5775 2.6084 -0.486878
lowerneck -26.2163 27.0735 3.38586
upperneck -0.602243 51.3119 -3.22676
head 35.8618 -44.0907 140.213
rclavicle 9.54166e-015 2.8625e-014
rhumerus -33.1285 -18.4693 -68.821
rradius 53.8678
rwrist -21.2609
rhand -32.4325 -1.12442
rfingers 7.12502
rthumb -5.66627 -31.0287
lclavicle 9.54166e-015 2.8625e-014
lhumerus -24.7133 -16.1861 98.4192
lradius 88.824
lwrist -13.6184
lhand -36.1872 -6.39248
lfingers 7.12502
lthumb -9.29046 23.3828
rfemur -26.8087 1.45128 10.4554
rtibia 71.2269
rfoot 17.5487 0.540268
rtoes -42.12
lfemur -83.9381 21.0244 -32.5623
ltibia 101.878
lfoot -31.2888 -12.1311
ltoes 23.1354
252
root 3.04394 13.678 9.9783 37.7112 -31.9958 -15.688
lowerback 40.085 2.47897 7.95641
upperback 7.40869 6.49955 5.66572
thorax -10.9057 2.44862 -0.693859
lowerneck -26.7344 26.6877 3.37038
upperneck -0.828362 51.1198 -3.40418
head 36.0467 -44.2962 140.093
rclavicle -6.75868e-014 5.1684e-015
rhumerus -34.0459 -17.9377 -69.2013
rradius 53.3454
rwrist -20.6182
rhand -31.9732 -0.888772
rfingers 7.12502
rthumb -5.22281 -30.8044
lclavicle -6.75868e-014 5.1684e-015
lhumerus -24.8104 -16.3929 98.6763
lradius 88.1254
lwrist -13.3033
lhand -35.9925 -7.11814
lfingers 7.12502
lthumb -9.10259 22.6654
rfemur -27.1378 1.28851 11.1623
rtibia 71.7863
rfoot 18.9555 -0.69397
rtoes -40.9181
lfemur -82.1244 20.1698 -32.4686
ltibia 100.954
lfoot -31.246 -12.7762
ltoes 23.5503
253
root 2.97011 13.7664 10.2717 37.2767 -30.1553 -14.7413
lowerback 39.6624 1.8524 8.48392
upperback 6.94129 5.99072 5.52539
thorax -11.2401 2.21321 -0.90631
lowerneck -27.2038 26.3449 3.35546
upperneck -1.03188 51.0052 -3.57929
head 36.2473 -44.4781 139.962
rclavicle -5.08889e-014 -3.22031e-014
rhumerus -34.8806 -17.3293 -69.6005
rradius 52.7854
rwrist -19.8424
rhand -31.4332 -0.633816
rfingers 7.12502
rthumb -4.70143 -30.5616
lclavicle -5.08889e-014 -3.22031e-014
lhumerus -25.005 -16.5147 98.9067
lradius 87.8209
lwrist -13.0076
lhand -35.7482 -7.73521
lfingers 7.12502
lthumb -8.86681 22.0585
rfemur -27.6492 0.717438 11.7592
rtibia 72.8608
rfoot 18.9345 -2.19687
rtoes -40.1119
lfemur -80.1192 19.1432 -32.4521
ltibia 99.9356
lfoot -31.1595 -13.3113
ltoes 23.8829
254
root 2.90054 13.8509 10.5675 36.6937 -28.2974 -13.6518
lowerback 39.31 1.13112 9.00304
upperback 6.50903 5.35455 5.37005
thorax -11.5717 1.91773 -1.07837
lowerneck -27.622 26.0491 3.33209
upperneck -1.20905 50.9929 -3.75662
head 36.459 -44.6145 139.824
rclavicle -1.19271e-014 5.725e-014
rhumerus -35.6266 -16.6635 -70.0027
rradius 52.1989
rwrist -18.9721
rhand -30.8588 -0.378855
rfingers 7.12502
rthumb -4.14677 -30.3182
lclavicle -1.19271e-014 5.725e-014
lhumerus -25.265 -16.5415 99.1231
lradius 87.8676
lwrist -12.733
lhand -35.4892 -8.29527
lfingers 7.12502
lthumb -8.61684 21.5089
rfemur -28.3231 -0.196172 12.2384
rtibia 74.3712
rfoot 17.6118 -3.97535
rtoes -39.3745
lfemur -77.924 18.0459 -32.5289
ltibia 98.8439
lfoot -31.0861 -13.6909
ltoes 23.8863
255
root 2.83233 13.9319 10.8646 35.9921 -26.4885 -12.4784
lowerback 39.0442 0.370964 9.44355
upperback 6.11134 4.63373 5.19391
thorax -11.9151 1.58343 -1.19786
lowerneck -27.8761 25.8263 3.31059
upperneck -2.06964 50.3692 -4.19524
head 36.8115 -45.4898 139.694
rclavicle 4.92986e-014 4.77083e-015
rhumerus -36.3097 -15.9774 -70.4148
rradius 51.5976
rwrist -18.0702
rhand -30.289 -0.136461
rfingers 7.12502
rthumb -3.59657 -30.0859
lclavicle 4.92986e-014 4.77083e-015
lhumerus -25.5822 -16.5059 99.3066
lradius 88.2162
lwrist -12.4608
lhand -35.2724 -8.83955
lfingers 7.12502
lthumb -8.40764 20.9731
rfemur -29.1486 -1.32646 12.5887
rtibia 76.2162
rfoot 15.2602 -5.94798
rtoes -38.4169
lfemur -75.5527 17.0019 -32.6967
ltibia 97.6868
lfoot -31.0187 -13.9963
ltoes 23.649
256
root 2.76315 14.0093 11.1624 35.2406 -24.7761 -11.2828
lowerback 38.819 -0.367114 9.73764
upperback 5.75081 3.8746 5.01727
thorax -12.2573 1.23558 -1.22592
lowerneck -28.1686 25.631 3.32156
upperneck -2.19425 50.4951 -4.34762
head 37.041 -45.5506 139.54
rclavicle -5.56597e-015 4.96962e-014
rhumerus -36.9433 -15.2836 -70.8204
rradius 50.9923
rwrist -17.2324
rhand -29.7603 0.054998
rfingers 7.12502
rthumb -3.08594 -29.9024
lclavicle -5.56597e-015 4.96962e-014
lhumerus -25.9386 -16.4234 99.4694
lradius 88.8118
lwrist -12.1884
lhand -35.1223 -9.38334
lfingers 7.12502
lthumb -8.2628 20.4351
rfemur -30.1812 -2.55938 12.827
rtibia 78.3058
rfoot 12.2121 -7.89432
rtoes -37.4743
lfemur -73.0702 16.1026 -32.9379
ltibia 96.4799
lfoot -30.9625 -14.2873
ltoes 23.1974
